<svg width="16" height="16" viewBox="0 0 16 16" fill="none" xmlns="http://www.w3.org/2000/svg">
<path d="M4.625 13.25V9.875C4.625 9.46079 4.96079 9.125 5.375 9.125H10.625C11.0392 9.125 11.375 9.46079 11.375 9.875V13.625M11.375 2.75V4.25C11.375 4.66421 11.0392 5 10.625 5L5.375 5C4.96079 5 4.625 4.66421 4.625 4.25L4.625 2M13.6234 4.62342L11.3766 2.37658C11.1355 2.13546 10.8084 2 10.4674 2H3.28571C2.57563 2 2 2.57563 2 3.28571V12.7143C2 13.4244 2.57563 14 3.28571 14H12.7143C13.4244 14 14 13.4244 14 12.7143V5.53255C14 5.19156 13.8645 4.86454 13.6234 4.62342Z" stroke="white" stroke-linecap="round"/>
</svg>
