<svg width="22" height="11" viewBox="0 0 22 11" fill="none" xmlns="http://www.w3.org/2000/svg">
<path d="M8.532 0.0759997H9.528V10.948H8.532V0.0759997ZM6.204 4.024H8.82V4.84H6.204V4.024ZM3.348 1.624H4.152V3.256C4.152 3.84 4.072 4.416 3.912 4.984C3.76 5.544 3.544 6.072 3.264 6.568C2.992 7.064 2.668 7.504 2.292 7.888C1.924 8.272 1.528 8.576 1.104 8.8L0.504 8.008C0.896 7.816 1.264 7.552 1.608 7.216C1.952 6.88 2.252 6.5 2.508 6.076C2.772 5.644 2.976 5.188 3.12 4.708C3.272 4.22 3.348 3.736 3.348 3.256V1.624ZM3.564 1.624H4.356V3.256C4.356 3.704 4.428 4.16 4.572 4.624C4.716 5.08 4.916 5.512 5.172 5.92C5.436 6.328 5.74 6.696 6.084 7.024C6.428 7.344 6.796 7.596 7.188 7.78L6.6 8.572C6.168 8.356 5.768 8.064 5.4 7.696C5.032 7.328 4.708 6.908 4.428 6.436C4.156 5.956 3.944 5.444 3.792 4.9C3.64 4.356 3.564 3.808 3.564 3.256V1.624ZM0.912 1.192H6.804V2.008H0.912V1.192ZM14.3151 1.24H15.1311V2.116C15.1311 2.788 15.0031 3.408 14.7471 3.976C14.4991 4.544 14.1471 5.04 13.6911 5.464C13.2431 5.888 12.7111 6.212 12.0951 6.436L11.5911 5.644C12.1351 5.452 12.6111 5.18 13.0191 4.828C13.4271 4.468 13.7431 4.056 13.9671 3.592C14.1991 3.128 14.3151 2.636 14.3151 2.116V1.24ZM14.4951 1.24H15.3111V2.116C15.3111 2.588 15.4191 3.036 15.6351 3.46C15.8511 3.884 16.1551 4.256 16.5471 4.576C16.9391 4.896 17.3991 5.148 17.9271 5.332L17.4591 6.112C16.8511 5.904 16.3271 5.604 15.8871 5.212C15.4471 4.82 15.1031 4.36 14.8551 3.832C14.6151 3.296 14.4951 2.724 14.4951 2.116V1.24ZM11.8911 0.879999H17.6991V1.696H11.8911V0.879999ZM19.0671 0.0759997H20.0631V6.616H19.0671V0.0759997ZM19.7871 2.836H21.6591V3.664H19.7871V2.836ZM16.6071 6.916C17.3431 6.916 17.9751 6.996 18.5031 7.156C19.0391 7.308 19.4511 7.532 19.7391 7.828C20.0271 8.124 20.1711 8.484 20.1711 8.908C20.1711 9.332 20.0271 9.692 19.7391 9.988C19.4511 10.284 19.0391 10.512 18.5031 10.672C17.9751 10.832 17.3431 10.912 16.6071 10.912C15.8711 10.912 15.2351 10.832 14.6991 10.672C14.1631 10.512 13.7511 10.284 13.4631 9.988C13.1751 9.692 13.0311 9.332 13.0311 8.908C13.0311 8.484 13.1751 8.124 13.4631 7.828C13.7511 7.532 14.1631 7.308 14.6991 7.156C15.2351 6.996 15.8711 6.916 16.6071 6.916ZM16.6071 7.708C16.0711 7.708 15.6071 7.756 15.2151 7.852C14.8311 7.948 14.5351 8.084 14.3271 8.26C14.1191 8.436 14.0151 8.652 14.0151 8.908C14.0151 9.164 14.1191 9.384 14.3271 9.568C14.5351 9.744 14.8311 9.88 15.2151 9.976C15.6071 10.072 16.0711 10.12 16.6071 10.12C17.1431 10.12 17.6031 10.072 17.9871 9.976C18.3711 9.88 18.6671 9.744 18.8751 9.568C19.0831 9.384 19.1871 9.164 19.1871 8.908C19.1871 8.652 19.0831 8.436 18.8751 8.26C18.6671 8.084 18.3711 7.948 17.9871 7.852C17.6031 7.756 17.1431 7.708 16.6071 7.708Z" fill="white"/>
</svg>
