<svg width="21" height="11" viewBox="0 0 21 11" fill="none" xmlns="http://www.w3.org/2000/svg">
<path d="M5.112 0.784H6.156C6.156 1.688 5.952 2.508 5.544 3.244C5.136 3.972 4.556 4.596 3.804 5.116C3.06 5.636 2.168 6.048 1.128 6.352L0.72 5.572C1.632 5.308 2.416 4.964 3.072 4.54C3.728 4.116 4.232 3.624 4.584 3.064C4.936 2.496 5.112 1.876 5.112 1.204V0.784ZM1.272 0.784H5.784V1.588H1.272V0.784ZM8.532 0.0879996H9.528V6.268H8.532V0.0879996ZM6.18 2.872H8.712V3.7H6.18V2.872ZM2.532 6.736H9.528V10.78H2.532V6.736ZM8.544 7.528H3.504V9.976H8.544V7.528ZM13.9071 0.736H14.6991V2.176C14.6991 2.72 14.5991 3.26 14.3991 3.796C14.2071 4.332 13.9231 4.816 13.5471 5.248C13.1711 5.68 12.7151 6.016 12.1791 6.256L11.6391 5.476C12.1111 5.26 12.5151 4.972 12.8511 4.612C13.1951 4.252 13.4551 3.86 13.6311 3.436C13.8151 3.012 13.9071 2.592 13.9071 2.176V0.736ZM14.0751 0.736H14.8671V2.176C14.8671 2.584 14.9511 2.988 15.1191 3.388C15.2951 3.78 15.5471 4.136 15.8751 4.456C16.2031 4.776 16.5951 5.028 17.0511 5.212L16.5231 5.98C16.0031 5.764 15.5591 5.46 15.1911 5.068C14.8231 4.676 14.5431 4.232 14.3511 3.736C14.1671 3.24 14.0751 2.72 14.0751 2.176V0.736ZM19.8351 0.0879996H20.7831V6.64H19.8351V0.0879996ZM18.0831 2.908H20.1231V3.736H18.0831V2.908ZM17.5071 0.279999H18.4431V6.58H17.5071V0.279999ZM13.5111 7.24H20.7831V10.936H19.7991V8.056H13.5111V7.24Z" fill="white"/>
</svg>
