<svg width="28" height="7" viewBox="0 0 28 7" fill="none" xmlns="http://www.w3.org/2000/svg">
<path d="M2.728 5.376C3.21333 5.376 3.592 5.20533 3.864 4.864C4.14133 4.51733 4.28 3.96533 4.28 3.208C4.28 2.45067 4.14133 1.90133 3.864 1.56C3.592 1.21333 3.21333 1.04 2.728 1.04C1.68267 1.04 1.16 1.76267 1.16 3.208C1.16 4.65333 1.68267 5.376 2.728 5.376ZM2.728 6.096C2.01333 6.096 1.44 5.856 1.008 5.376C0.576 4.896 0.36 4.17333 0.36 3.208C0.36 2.24267 0.576 1.52 1.008 1.04C1.44 0.56 2.01333 0.32 2.728 0.32C3.18667 0.32 3.592 0.424 3.944 0.632C4.296 0.834667 4.57333 1.152 4.776 1.584C4.97867 2.016 5.08 2.55733 5.08 3.208C5.08 3.85867 4.97867 4.4 4.776 4.832C4.57333 5.264 4.296 5.584 3.944 5.792C3.592 5.99467 3.18667 6.096 2.728 6.096ZM9.3975 4.52V0.4H10.1975V6H9.3975L6.8375 1.792V6H6.0375V0.4H6.8375L9.3975 4.52ZM11.1969 3.8V3H14.2609V3.8H11.1969ZM17.5281 0.4L19.4481 6H18.6241L18.1121 4.512H16.0641L15.5681 6H14.7441L16.6641 0.4H17.5281ZM17.8641 3.792L17.0801 1.496L16.3121 3.792H17.8641ZM21.5393 1.12V5.28H22.3793V6H19.8913V5.28H20.7393V1.12H19.8913V0.4H22.3793V1.12H21.5393ZM25.6062 0.4C26.1555 0.4 26.5555 0.562666 26.8062 0.888C27.0622 1.21333 27.1902 1.61867 27.1902 2.104C27.1902 2.46667 27.1182 2.792 26.9742 3.08C26.8302 3.36267 26.6062 3.56533 26.3022 3.688L27.3182 6H26.4382L25.4702 3.808H24.1422V6H23.3422V0.4H25.6062ZM25.6062 3.08C25.8942 3.08 26.0969 3 26.2142 2.84C26.3315 2.68 26.3902 2.43467 26.3902 2.104C26.3902 1.77867 26.3315 1.536 26.2142 1.376C26.0969 1.21067 25.8942 1.128 25.6062 1.128H24.1422V3.08H25.6062Z" fill="white"/>
</svg>
